<?xml version="1.0" standalone="no"?><!DOCTYPE svg PUBLIC "-//W3C//DTD SVG 1.1//EN" "http://www.w3.org/Graphics/SVG/1.1/DTD/svg11.dtd"><svg t="1700376506708" class="icon" viewBox="0 0 1024 1024" version="1.1" xmlns="http://www.w3.org/2000/svg" p-id="5384" xmlns:xlink="http://www.w3.org/1999/xlink" width="200" height="200"><path d="M232.12 489.24H928.3v414.82H232.12z" fill="#81C8BE" p-id="5385"></path><path d="M934.91 910.66H225.52V482.63h709.39v428.03z m-696.18-13.21H921.7V495.84H238.73v401.61z" fill="#81C8BE" p-id="5386"></path><path d="M961.34 959.56H65.65V63.87h895.69v895.69zM131.7 893.5h763.58V129.92H131.7V893.5z" fill="#1E4D48" p-id="5387"></path><path d="M98.67 339.67H928.3v66.05H98.67zM232.12 511.72h103.43v103.43H232.12zM232.12 681.87h103.43V785.3H232.12zM461.77 511.72H565.2v103.43H461.77zM461.77 681.87H565.2V785.3H461.77zM682.53 511.72h103.43V785.3H682.53z" fill="#1E4D48" p-id="5388"></path></svg>